# xmcd
#
# Track frame offsets: 
#        150
#        12188
#        26675
#        38133
#        52708
#        66573
#        79970
#        96088
#        114615
#        131925
#
# Disc length: 2109 seconds
#
# Revision: 2
# Processed by: cddbd v1.5.2PL0 Copyright (c) Steve Scherf et al.
# Submitted via: ExactAudioCopy v1.0b1
#
DISCID=84083b0a
DTITLE=Big Fat Snake - Born Lucky
DYEAR=1992
DGENRE=Blues
TTITLE0=Changes
TTITLE1=Whenever you're ready
TTITLE2=Mercury blues
TTITLE3=Today i fell in love with you again
TTITLE4=tryin' to get over you
TTITLE5=Don't you know
TTITLE6=Cruisin'
TTITLE7=Wonderful eyes
TTITLE8=Broke a rule
TTITLE9=Lucky old sun
EXTD=
EXTT0=
EXTT1=
EXTT2=
EXTT3=
EXTT4=
EXTT5=
EXTT6=
EXTT7=
EXTT8=
EXTT9=
PLAYORDER=
